<?xml version="1.0" standalone="yes"?>
<svg xmlns="http://www.w3.org/2000/svg" width="64" height="64">
<path style="fill:#ffffff; stroke:none;" d="M0 0L0 39L1 39C5.16153 34.4056 9.03994 34.0046 15 34L14 60L0 57L0 64L64 64L64 57L50 60L49 34C54.9601 34.0046 58.8385 34.4056 63 39L64 39L64 0L0 0z"/>
<path style="fill:#010101; stroke:none;" d="M21 20L20 20C15.633 11.6784 2.72727 15.0868 4.24383 24.9961C6.13485 37.3523 20.7512 31.29 21 21L22 21C26.1496 29.4122 37.8504 29.4122 42 21L43 21C43.2488 31.29 57.8651 37.3523 59.7562 24.9961C61.2727 15.0868 48.367 11.6784 44 20C43.3128 15.5243 43.4416 10.7218 39.7724 7.42978C29.9513 -1.38168 19.5176 9.56457 21 20M23.0046 29.7423C16.077 32.4393 13.5091 52.6913 18.0278 58.3966C20.7566 61.842 40.855 61.2798 44.6821 59.3966C48.6366 57.4508 47 48.6046 47 45C47 31.219 36.8595 24.3483 23.0046 29.7423M14 60L15 34C11.1733 34.0004 6.56735 33.3878 3.34414 35.8935C-1.16207 39.3966 -2.2781 54.4671 2.3179 58.2577C5.34793 60.7568 10.3499 59.9996 14 60M49 34L50 60C53.6501 59.9996 58.6521 60.7568 61.6821 58.2577C66.2781 54.4671 65.1621 39.3966 60.6559 35.8935C57.4327 33.3878 52.8267 34.0004 49 34z"/>
</svg>
